<?xml version="1.0" encoding="utf-8"?>
<!-- Generator: Adobe Illustrator 27.1.0, SVG Export Plug-In . SVG Version: 6.00 Build 0)  -->
<svg version="1.1" id="Layer_1" xmlns="http://www.w3.org/2000/svg" xmlns:xlink="http://www.w3.org/1999/xlink" x="0px" y="0px"
	 viewBox="0 0 1021.5 1080" style="enable-background:new 0 0 1021.5 1080;" xml:space="preserve">
<style type="text/css">
	.st0{fill:#213147;}
	.st1{fill:#12AAFF;}
	.st2{fill:#9DCCED;}
	.st3{fill:#FFFFFF;}
	.st4{fill:#2D364D;}
</style>
<g>
	<g>
		<path class="st0" d="M173.9,250v322.5c0,20.6,11,39.6,28.8,49.9l279.3,161.2c17.8,10.3,39.8,10.3,57.6,0l279.3-161.2
			c17.8-10.3,28.8-29.3,28.8-49.9V250c0-20.6-11-39.6-28.8-49.9L539.5,38.9c-17.8-10.3-39.8-10.3-57.6,0L202.7,200.1
			C184.8,210.4,173.9,229.5,173.9,250z"/>
		<g>
			<g>
				<g>
					<path class="st1" d="M571.7,473.8L531.9,583c-1.1,3-1.1,6.3,0,9.4l68.5,187.9l79.3-45.8l-95.1-260.7
						C582.4,467.8,573.9,467.8,571.7,473.8z"/>
				</g>
				<g>
					<path class="st1" d="M651.6,290.1c-2.2-6-10.7-6-12.9,0l-39.8,109.2c-1.1,3-1.1,6.3,0,9.4l112.2,307.7l79.3-45.8L651.6,290.1z"
						/>
				</g>
			</g>
		</g>
		<path class="st2" d="M510.7,51c2,0,3.9,0.5,5.7,1.5L818.6,227c3.5,2,5.7,5.8,5.7,9.8v348.9c0,4-2.2,7.8-5.7,9.8L516.4,770
			c-1.7,1-3.7,1.5-5.7,1.5s-3.9-0.5-5.7-1.5L202.9,595.6c-3.5-2-5.7-5.8-5.7-9.8V236.8c0-4,2.2-7.8,5.7-9.8L505.1,52.5
			C506.8,51.5,508.8,51,510.7,51 M510.7,0c-10.8,0-21.5,2.8-31.2,8.3L177.4,182.8c-19.3,11.1-31.2,31.7-31.2,54v348.9
			c0,22.3,11.9,42.8,31.2,54l302.2,174.5c9.6,5.6,20.4,8.3,31.2,8.3c10.8,0,21.5-2.8,31.2-8.3l302.2-174.5
			c19.3-11.1,31.2-31.7,31.2-54V236.8c0-22.3-11.9-42.8-31.2-54L541.9,8.3C532.3,2.8,521.5,0,510.7,0L510.7,0z"/>
		<polygon class="st0" points="310.9,716.8 338.7,640.7 394.6,687.2 342.3,734.9 		"/>
		<g>
			<path class="st3" d="M485.3,211.8h-76.6c-5.7,0-10.9,3.6-12.9,9L231.6,671l79.3,45.8L491.7,221
				C493.4,216.5,490.1,211.8,485.3,211.8z"/>
			<path class="st3" d="M619.3,211.8h-76.6c-5.7,0-10.9,3.6-12.9,9L342.3,734.9l79.3,45.8L625.8,221
				C627.4,216.5,624.1,211.8,619.3,211.8z"/>
		</g>
	</g>
	<g>
		<path class="st4" d="M65.7,904.8c3.4,0,6.2,0.7,8.5,2.1c2.3,1.4,4.6,4,6.8,8l43.9,79.7c0.4,0.9,0.6,1.6,0.3,2.2
			c-0.2,0.6-0.9,0.9-1.9,0.9h-16.8c-1.5,0-2.5-0.6-3.1-1.7l-9.4-17.1H31.6L22.5,996c-0.6,1.2-1.6,1.7-3,1.7H2.2
			c-1.2,0-1.8-0.3-2.1-0.9c-0.2-0.6-0.1-1.3,0.3-2.2l43.5-79.7c2.2-4,4.4-6.7,6.5-8c2.1-1.4,4.6-2.1,7.4-2.1H65.7z M40,963.5h45.6
			l-21.1-38.9c-0.4-0.6-0.8-0.9-1.5-0.9h-0.8c-0.6,0-1.1,0.3-1.5,0.9L40,963.5z"/>
		<path class="st4" d="M221.4,904.8c10.2,0,17.5,2.3,21.9,6.9c4.4,4.6,6.6,11.4,6.6,20.4v7.6c0,7.6-1.5,13.6-4.6,18
			c-3.1,4.4-8.1,7.3-15.1,8.5l22.7,28.1c0.4,0.4,0.6,1.1,0.4,2c-0.2,0.9-0.9,1.3-2.1,1.3H234c-1.2,0-1.9-0.1-2.4-0.4
			c-0.4-0.3-0.9-0.7-1.3-1.3l-21-27.6h-42.8v26.4c0,1.9-1,2.9-2.9,2.9h-14.3c-2,0-3.1-1-3.1-2.9v-85.9c0-2.7,1.3-4,4-4L221.4,904.8
			L221.4,904.8z M166.5,952.2h50.8c4.5,0,7.7-1,9.5-2.9c1.9-1.9,2.8-4.9,2.8-8.9v-5.6c0-4-0.9-6.9-2.8-8.9c-1.9-1.9-5-2.9-9.5-2.9
			h-49.1c-1.2,0-1.7,0.5-1.7,1.6V952.2z"/>
		<path class="st4" d="M360.9,904.8c9.1,0,15.6,1.8,19.4,5.4c3.8,3.6,5.8,9.1,5.8,16.4v6.4c0,7.4-2.8,13-8.5,16.8
			c6.1,3.5,9.2,9.2,9.2,17.1v7.7c0,3.5-0.4,6.7-1.2,9.5c-0.8,2.8-2.1,5.2-3.9,7.2c-1.8,2-4.2,3.5-7.2,4.6c-3,1.1-6.7,1.6-11.1,1.6
			h-78.8c-2.7,0-4-1.3-4-4v-84.9c0-2.7,1.3-4,4-4L360.9,904.8L360.9,904.8z M300.8,943.4h54.4c4.4,0,7.4-0.7,9-2
			c1.6-1.3,2.4-3.3,2.4-5.8v-4.5c0-2.7-0.8-4.8-2.3-6c-1.5-1.3-4-1.9-7.5-1.9h-54.3c-1.2,0-1.7,0.6-1.7,1.7V943.4z M300.8,957.9
			v19.8c0,1.2,0.6,1.7,1.7,1.7h54.4c3.5,0,6.1-0.6,7.6-1.9c1.5-1.3,2.3-3.3,2.3-6.2v-5c0-2.7-0.8-4.8-2.5-6.2
			c-1.6-1.4-4.7-2.1-9.1-2.1L300.8,957.9L300.8,957.9z"/>
		<path class="st4" d="M436.2,904.8c1.9,0,2.9,1,2.9,2.9v87c0,1.9-1,2.9-2.9,2.9h-14.3c-2,0-3-1-3-2.9v-87c0-1.9,1-2.9,3-2.9H436.2z
			"/>
		<path class="st4" d="M575.2,904.8c2,0,3.1,1,3.1,2.9v13c0,2-1,3.1-3.1,3.1h-41.6v71c0,1.9-1,2.9-2.9,2.9h-14.5
			c-1.9,0-2.9-1-2.9-2.9v-71h-41.6c-2,0-3.1-1-3.1-3.1v-13c0-1.9,1-2.9,3.1-2.9H575.2z"/>
		<path class="st4" d="M680.1,904.8c10.2,0,17.5,2.3,21.9,6.9c4.4,4.6,6.6,11.4,6.6,20.4v7.6c0,7.6-1.5,13.6-4.6,18
			c-3.1,4.4-8.1,7.3-15.1,8.5l22.7,28.1c0.4,0.4,0.6,1.1,0.4,2c-0.2,0.9-0.9,1.3-2.1,1.3h-17.1c-1.2,0-1.9-0.1-2.4-0.4
			c-0.4-0.3-0.9-0.7-1.3-1.3l-21-27.6h-42.8v26.4c0,1.9-1,2.9-2.9,2.9H608c-2,0-3.1-1-3.1-2.9v-85.9c0-2.7,1.3-4,4-4L680.1,904.8
			L680.1,904.8z M625.2,952.2H676c4.5,0,7.7-1,9.5-2.9c1.9-1.9,2.8-4.9,2.8-8.9v-5.6c0-4-0.9-6.9-2.8-8.9c-1.9-1.9-5-2.9-9.5-2.9
			H627c-1.2,0-1.7,0.5-1.7,1.6L625.2,952.2L625.2,952.2z"/>
		<path class="st4" d="M754.7,904.8c1.9,0,2.9,1,2.9,2.9v52.9c0,3.5,0.3,6.5,0.9,8.8c0.6,2.3,1.5,4.2,2.9,5.6
			c1.3,1.4,3.1,2.3,5.4,2.9c2.3,0.6,5.1,0.9,8.6,0.9H812c3.4,0,6.3-0.3,8.6-0.9c2.3-0.6,4-1.5,5.4-2.9c1.3-1.4,2.3-3.2,2.8-5.6
			c0.5-2.3,0.8-5.3,0.8-8.8v-52.9c0-1.9,1-2.9,2.9-2.9h14.5c1.9,0,2.9,1,2.9,2.9v54.9c0,6.4-0.7,11.8-2,16.2
			c-1.3,4.5-3.5,8.1-6.4,10.9c-3,2.8-6.8,4.8-11.5,6c-4.7,1.2-10.5,1.9-17.2,1.9h-38.2c-6.7,0-12.4-0.6-17.1-1.9
			c-4.7-1.2-8.5-3.3-11.5-6c-3-2.8-5.1-6.4-6.5-10.9c-1.4-4.5-2.1-9.9-2.1-16.2v-54.9c0-1.9,1-2.9,3.1-2.9H754.7z"/>
		<path class="st4" d="M906.9,904.8c1.9,0,3.6,0.1,5,0.4c1.4,0.3,2.7,0.8,3.7,1.5c1.1,0.8,2,1.8,2.9,3.1c0.8,1.3,1.7,3,2.6,5.1
			l27.6,63.7c0.4,0.8,1,1.2,1.9,1.2h1.6c0.9,0,1.5-0.4,1.9-1.2l27.6-63.7c0.9-2.1,1.7-3.8,2.6-5.1c0.8-1.3,1.8-2.3,2.9-3.1
			c1.1-0.8,2.3-1.3,3.6-1.5c1.4-0.3,3-0.4,5-0.4h14.2c4.6,0,7.7,1,9.3,3.1c1.6,2.1,2.4,5.6,2.4,10.7v76.1c0,1.9-1,2.9-3,2.9h-13.5
			c-1.9,0-2.9-1-2.9-2.9v-69.2c0-0.9-0.4-1.3-1.1-1.3h-1.2c-0.9,0-1.5,0.4-1.7,1.1l-26.8,59.4c-1.1,2.4-2.1,4.4-3.3,6
			c-1.1,1.6-2.3,3-3.6,4c-1.3,1.1-2.7,1.8-4.4,2.3c-1.6,0.4-3.6,0.7-5.8,0.7h-6.4c-2.2,0-4.1-0.2-5.8-0.7c-1.6-0.4-3.1-1.2-4.4-2.3
			c-1.3-1.1-2.5-2.4-3.6-4c-1.1-1.6-2.2-3.6-3.2-6l-26.8-59.4c-0.3-0.7-0.8-1.1-1.7-1.1h-1.2c-0.7,0-1.1,0.4-1.1,1.3v69.2
			c0,1.9-1,2.9-2.9,2.9h-13.5c-2,0-3.1-1-3.1-2.9v-76.1c0-5,0.8-8.6,2.4-10.7c1.6-2.1,4.7-3.1,9.4-3.1H906.9z"/>
	</g>
	<g>
		<g>
			<path class="st1" d="M198.5,1025.1c1.2,0,1.8,0.6,1.8,1.7v7.4c0,1.2-0.6,1.7-1.8,1.7h-34c-2,0-3.7,0.2-5.1,0.5
				c-1.3,0.3-2.4,0.9-3.2,1.7c-0.8,0.8-1.3,1.9-1.7,3.3c-0.3,1.4-0.5,3.1-0.5,5.1v1.6h44.1c1.1,0,1.7,0.6,1.7,1.7v6.2
				c0,1.2-0.6,1.7-1.7,1.7h-44.1v20.4c0,1.2-0.6,1.7-1.7,1.7h-8.5c-1.2,0-1.8-0.6-1.8-1.7v-32.5c0-3.8,0.4-7,1.2-9.6
				c0.8-2.6,2.1-4.7,3.8-6.4c1.8-1.6,4-2.8,6.8-3.6c2.8-0.8,6.1-1.1,10.1-1.1H198.5z"/>
			<path class="st1" d="M261.5,1025.1c4,0,7.4,0.4,10.2,1.1c2.8,0.8,5.1,2,6.8,3.6c1.8,1.6,3,3.8,3.8,6.4c0.8,2.6,1.2,5.8,1.2,9.6
				v13.5c0,3.8-0.4,7-1.2,9.6c-0.8,2.6-2.1,4.8-3.8,6.4c-1.8,1.6-4,2.8-6.8,3.6c-2.8,0.7-6.2,1.1-10.2,1.1h-24.2
				c-4,0-7.3-0.4-10.1-1.1c-2.8-0.7-5-1.9-6.8-3.6c-1.8-1.6-3-3.8-3.8-6.4c-0.8-2.6-1.2-5.8-1.2-9.6v-13.5c0-3.8,0.4-7,1.2-9.6
				c0.8-2.6,2.1-4.7,3.8-6.4c1.8-1.6,4-2.8,6.8-3.6c2.8-0.8,6.1-1.1,10.1-1.1H261.5z M227.3,1058.4c0,2,0.2,3.8,0.5,5.1
				c0.3,1.4,0.9,2.5,1.7,3.3c0.8,0.8,1.8,1.4,3.2,1.7c1.3,0.3,3,0.5,5.1,0.5H261c2,0,3.7-0.2,5.1-0.5c1.3-0.3,2.4-0.9,3.2-1.7
				c0.8-0.8,1.3-1.9,1.7-3.3c0.3-1.4,0.5-3.1,0.5-5.1v-11.8c0-2-0.2-3.7-0.5-5.1c-0.3-1.4-0.9-2.5-1.7-3.3c-0.8-0.8-1.8-1.4-3.2-1.7
				c-1.3-0.3-3-0.5-5.1-0.5h-23.3c-2,0-3.7,0.2-5.1,0.5c-1.3,0.3-2.4,0.9-3.2,1.7c-0.8,0.8-1.3,1.9-1.7,3.3
				c-0.3,1.4-0.5,3.1-0.5,5.1V1058.4z"/>
			<path class="st1" d="M311.1,1025.1c1.1,0,1.7,0.6,1.7,1.7v31.3c0,2.1,0.2,3.8,0.5,5.2c0.3,1.4,0.9,2.5,1.7,3.3
				c0.8,0.8,1.8,1.4,3.2,1.7c1.3,0.3,3,0.5,5.1,0.5H345c2,0,3.7-0.2,5.1-0.5c1.3-0.3,2.4-0.9,3.2-1.7c0.8-0.8,1.3-1.9,1.6-3.3
				c0.3-1.4,0.5-3.1,0.5-5.2v-31.3c0-1.1,0.6-1.7,1.7-1.7h8.5c1.1,0,1.7,0.6,1.7,1.7v32.5c0,3.8-0.4,7-1.2,9.6
				c-0.8,2.6-2.1,4.8-3.8,6.4c-1.8,1.6-4,2.8-6.8,3.6c-2.8,0.7-6.2,1.1-10.2,1.1h-22.6c-4,0-7.3-0.4-10.1-1.1
				c-2.8-0.7-5-1.9-6.8-3.6c-1.8-1.6-3-3.8-3.8-6.4c-0.8-2.6-1.2-5.8-1.2-9.6v-32.5c0-1.1,0.6-1.7,1.8-1.7H311.1z"/>
			<path class="st1" d="M399.4,1025.1c1.3,0,2.3,0.1,3.1,0.2c0.8,0.1,1.6,0.3,2.2,0.7c0.6,0.3,1.2,0.8,1.8,1.4
				c0.6,0.6,1.2,1.4,2,2.4l29.2,38.3c0.2,0.4,0.5,0.5,1,0.5h0.7c0.4,0,0.6-0.3,0.6-0.8v-40.9c0-1.1,0.6-1.7,1.7-1.7h8.2
				c1.1,0,1.7,0.6,1.7,1.7v45c0,3.2-0.6,5.3-1.7,6.5c-1.1,1.1-2.9,1.7-5.3,1.7h-6.7c-1.2,0-2.2-0.1-3-0.2c-0.8-0.1-1.5-0.3-2.2-0.6
				c-0.6-0.3-1.2-0.8-1.8-1.4c-0.6-0.6-1.3-1.4-2.1-2.5l-29.2-38.3c-0.3-0.4-0.7-0.6-1-0.6h-0.7c-0.4,0-0.6,0.3-0.6,0.8v40.9
				c0,1.2-0.6,1.7-1.7,1.7h-8.2c-1.2,0-1.8-0.6-1.8-1.7v-45c0-3.2,0.6-5.3,1.7-6.5c1.1-1.1,2.9-1.7,5.3-1.7H399.4z"/>
			<path class="st1" d="M509,1025.1c4.2,0,7.9,0.4,10.9,1.3c3,0.9,5.5,2.2,7.4,4c1.9,1.8,3.4,4.1,4.3,6.9c0.9,2.8,1.4,6.1,1.4,9.9
				v10.7c0,3.8-0.5,7.1-1.4,9.9c-0.9,2.8-2.3,5.1-4.3,6.9c-1.9,1.8-4.4,3.1-7.4,4c-3,0.9-6.7,1.3-10.9,1.3h-36.7
				c-1.6,0-2.4-0.8-2.4-2.4v-50.2c0-1.6,0.8-2.4,2.4-2.4H509z M481.9,1068.1c0,0.7,0.3,1,1,1h25.7c2.3,0,4.2-0.2,5.8-0.6
				c1.6-0.4,2.8-1.1,3.8-2c1-0.9,1.7-2.2,2.1-3.8c0.4-1.6,0.6-3.5,0.6-5.8v-8.6c0-2.3-0.2-4.2-0.6-5.8c-0.4-1.6-1.1-2.8-2.1-3.8
				c-1-0.9-2.2-1.6-3.8-2c-1.6-0.4-3.5-0.6-5.8-0.6h-25.7c-0.7,0-1,0.4-1,1.1V1068.1z"/>
			<path class="st1" d="M582.3,1025.1c2,0,3.7,0.4,5,1.2c1.4,0.8,2.7,2.4,4,4.7l25.9,47.1c0.3,0.5,0.3,1,0.2,1.3
				c-0.1,0.3-0.5,0.5-1.1,0.5h-10c-0.9,0-1.5-0.3-1.8-1l-5.6-10.1h-36.8l-5.4,10.1c-0.4,0.7-1,1-1.8,1h-10.2c-0.7,0-1.1-0.2-1.2-0.5
				c-0.1-0.3-0.1-0.8,0.2-1.3l25.7-47.1c1.3-2.4,2.6-3.9,3.8-4.7c1.3-0.8,2.7-1.2,4.4-1.2H582.3z M567.1,1059.8h27l-12.5-23
				c-0.2-0.4-0.5-0.5-0.9-0.5h-0.5c-0.4,0-0.7,0.2-0.9,0.5L567.1,1059.8z"/>
			<path class="st1" d="M681.2,1025.1c1.2,0,1.8,0.6,1.8,1.7v7.7c0,1.2-0.6,1.8-1.8,1.8h-24.6v41.9c0,1.2-0.6,1.7-1.7,1.7h-8.5
				c-1.1,0-1.7-0.6-1.7-1.7v-41.9H620c-1.2,0-1.8-0.6-1.8-1.8v-7.7c0-1.1,0.6-1.7,1.8-1.7H681.2z"/>
			<path class="st1" d="M708.1,1025.1c1.1,0,1.7,0.6,1.7,1.7v51.4c0,1.2-0.6,1.7-1.7,1.7h-8.5c-1.2,0-1.8-0.6-1.8-1.7v-51.4
				c0-1.1,0.6-1.7,1.8-1.7H708.1z"/>
			<path class="st1" d="M773.6,1025.1c4,0,7.4,0.4,10.2,1.1c2.8,0.8,5.1,2,6.8,3.6c1.8,1.6,3,3.8,3.8,6.4c0.8,2.6,1.2,5.8,1.2,9.6
				v13.5c0,3.8-0.4,7-1.2,9.6c-0.8,2.6-2.1,4.8-3.8,6.4c-1.8,1.6-4,2.8-6.8,3.6c-2.8,0.7-6.2,1.1-10.2,1.1h-24.2
				c-4,0-7.3-0.4-10.1-1.1c-2.8-0.7-5-1.9-6.8-3.6c-1.8-1.6-3-3.8-3.8-6.4c-0.8-2.6-1.2-5.8-1.2-9.6v-13.5c0-3.8,0.4-7,1.2-9.6
				c0.8-2.6,2.1-4.7,3.8-6.4c1.8-1.6,4-2.8,6.8-3.6c2.8-0.8,6.1-1.1,10.1-1.1H773.6z M739.5,1058.4c0,2,0.2,3.8,0.5,5.1
				c0.3,1.4,0.9,2.5,1.7,3.3c0.8,0.8,1.8,1.4,3.2,1.7c1.3,0.3,3,0.5,5.1,0.5h23.3c2,0,3.7-0.2,5.1-0.5c1.3-0.3,2.4-0.9,3.2-1.7
				c0.8-0.8,1.3-1.9,1.7-3.3c0.3-1.4,0.5-3.1,0.5-5.1v-11.8c0-2-0.2-3.7-0.5-5.1c-0.3-1.4-0.9-2.5-1.7-3.3c-0.8-0.8-1.8-1.4-3.2-1.7
				c-1.3-0.3-3-0.5-5.1-0.5h-23.3c-2,0-3.7,0.2-5.1,0.5c-1.3,0.3-2.4,0.9-3.2,1.7c-0.8,0.8-1.3,1.9-1.7,3.3
				c-0.3,1.4-0.5,3.1-0.5,5.1V1058.4z"/>
			<path class="st1" d="M827.1,1025.1c1.3,0,2.3,0.1,3.1,0.2c0.8,0.1,1.6,0.3,2.2,0.7c0.6,0.3,1.2,0.8,1.8,1.4
				c0.6,0.6,1.2,1.4,2,2.4l29.2,38.3c0.2,0.4,0.5,0.5,1,0.5h0.7c0.4,0,0.6-0.3,0.6-0.8v-40.9c0-1.1,0.6-1.7,1.7-1.7h8.2
				c1.1,0,1.7,0.6,1.7,1.7v45c0,3.2-0.6,5.3-1.7,6.5c-1.1,1.1-2.9,1.7-5.3,1.7h-6.7c-1.2,0-2.2-0.1-3-0.2c-0.8-0.1-1.5-0.3-2.2-0.6
				c-0.6-0.3-1.2-0.8-1.8-1.4c-0.6-0.6-1.3-1.4-2.1-2.5l-29.2-38.3c-0.3-0.4-0.7-0.6-1-0.6h-0.7c-0.4,0-0.6,0.3-0.6,0.8v40.9
				c0,1.2-0.6,1.7-1.7,1.7h-8.2c-1.2,0-1.8-0.6-1.8-1.7v-45c0-3.2,0.6-5.3,1.7-6.5c1.1-1.1,2.9-1.7,5.3-1.7H827.1z"/>
		</g>
	</g>
</g>
</svg>
